<?xml version="1.0" encoding="UTF-8" standalone="no"?>
<!DOCTYPE svg PUBLIC "-//W3C//DTD SVG 1.1//EN"
 "http://www.w3.org/Graphics/SVG/1.1/DTD/svg11.dtd">
<!-- Generated by graphviz version 2.43.0 (0)
 -->
<!-- Title: amplifier_tester Pages: 1 -->
<svg width="431pt" height="611pt"
 viewBox="0.00 0.00 431.00 611.00" xmlns="http://www.w3.org/2000/svg" xmlns:xlink="http://www.w3.org/1999/xlink">
<g id="graph0" class="graph" transform="scale(1 1) rotate(0) translate(4 607)">
<title>amplifier_tester</title>
<polygon fill="white" stroke="transparent" points="-4,4 -4,-607 427,-607 427,4 -4,4"/>
<g id="clust1" class="cluster">
<title>cluster_developer</title>
<path fill="none" stroke="#666666" d="M91,-512C91,-512 318,-512 318,-512 324,-512 330,-518 330,-524 330,-524 330,-583 330,-583 330,-589 324,-595 318,-595 318,-595 91,-595 91,-595 85,-595 79,-589 79,-583 79,-583 79,-524 79,-524 79,-518 85,-512 91,-512"/>
<text text-anchor="middle" x="204.5" y="-579.8" font-family="Helvetica,sans-Serif" font-size="14.00">Developer Machine</text>
</g>
<g id="clust2" class="cluster">
<title>cluster_agents</title>
<path fill="none" stroke="#2e86c1" d="M171,-342C171,-342 397,-342 397,-342 403,-342 409,-348 409,-354 409,-354 409,-462 409,-462 409,-468 403,-474 397,-474 397,-474 171,-474 171,-474 165,-474 159,-468 159,-462 159,-462 159,-354 159,-354 159,-348 165,-342 171,-342"/>
<text text-anchor="middle" x="284" y="-458.8" font-family="Helvetica,sans-Serif" font-size="14.00" fill="#2e86c1">Agents</text>
</g>
<g id="clust3" class="cluster">
<title>cluster_gitea</title>
<path fill="none" stroke="#27ae60" d="M20,-221C20,-221 116,-221 116,-221 122,-221 128,-227 128,-233 128,-233 128,-292 128,-292 128,-298 122,-304 116,-304 116,-304 20,-304 20,-304 14,-304 8,-298 8,-292 8,-292 8,-233 8,-233 8,-227 14,-221 20,-221"/>
<text text-anchor="middle" x="68" y="-288.8" font-family="Helvetica,sans-Serif" font-size="14.00" fill="#27ae60">Gitea Instance</text>
</g>
<g id="clust4" class="cluster">
<title>cluster_dtu</title>
<path fill="none" stroke="#e67e22" d="M148,-82C148,-82 403,-82 403,-82 409,-82 415,-88 415,-94 415,-94 415,-288 415,-288 415,-294 409,-300 403,-300 403,-300 148,-300 148,-300 142,-300 136,-294 136,-288 136,-288 136,-94 136,-94 136,-88 142,-82 148,-82"/>
<text text-anchor="middle" x="275.5" y="-284.8" font-family="Helvetica,sans-Serif" font-size="14.00" fill="#e67e22">Digital Twin Universe</text>
</g>
<g id="clust5" class="cluster">
<title>cluster_dtu_inside</title>
<polygon fill="none" stroke="#f0b27a" stroke-dasharray="5,2" points="144,-90 144,-173 407,-173 407,-90 144,-90"/>
<text text-anchor="middle" x="275.5" y="-157.8" font-family="Helvetica,sans-Serif" font-size="14.00" fill="#e67e22">Incus Container</text>
</g>
<!-- local_repos -->
<g id="node1" class="node">
<title>local_repos</title>
<polygon fill="#e8f4fd" stroke="black" points="190.5,-564 187.5,-568 166.5,-568 163.5,-564 87.5,-564 87.5,-520 190.5,-520 190.5,-564"/>
<text text-anchor="middle" x="139" y="-551.2" font-family="Helvetica,sans-Serif" font-size="11.00">Local Repos</text>
<text text-anchor="middle" x="139" y="-539.2" font-family="Helvetica,sans-Serif" font-size="11.00">(core, modules,</text>
<text text-anchor="middle" x="139" y="-527.2" font-family="Helvetica,sans-Serif" font-size="11.00">bundles, cli)</text>
</g>
<!-- setup_digital_twin -->
<g id="node3" class="node">
<title>setup_digital_twin</title>
<path fill="#aed6f1" stroke="black" d="M267,-443C267,-443 179,-443 179,-443 173,-443 167,-437 167,-431 167,-431 167,-362 167,-362 167,-356 173,-350 179,-350 179,-350 267,-350 267,-350 273,-350 279,-356 279,-362 279,-362 279,-431 279,-431 279,-437 273,-443 267,-443"/>
<text text-anchor="middle" x="223" y="-430.2" font-family="Helvetica,sans-Serif" font-size="11.00">setup&#45;digital&#45;twin</text>
<text text-anchor="middle" x="223" y="-405.2" font-family="Helvetica,sans-Serif" font-size="11.00">Gather context</text>
<text text-anchor="middle" x="223" y="-393.2" font-family="Helvetica,sans-Serif" font-size="11.00">Classify repos</text>
<text text-anchor="middle" x="223" y="-381.2" font-family="Helvetica,sans-Serif" font-size="11.00">Mirror to Gitea</text>
<text text-anchor="middle" x="223" y="-369.2" font-family="Helvetica,sans-Serif" font-size="11.00">Generate profile</text>
<text text-anchor="middle" x="223" y="-357.2" font-family="Helvetica,sans-Serif" font-size="11.00">Launch + verify</text>
</g>
<!-- local_repos&#45;&gt;setup_digital_twin -->
<g id="edge2" class="edge">
<title>local_repos&#45;&gt;setup_digital_twin</title>
<path fill="none" stroke="black" stroke-dasharray="5,2" d="M141.59,-519.99C143.6,-508.35 147.08,-493.87 153,-482 158.31,-471.34 165.2,-460.85 172.58,-451.09"/>
<polygon fill="black" stroke="black" points="175.46,-453.09 178.88,-443.06 169.95,-448.77 175.46,-453.09"/>
<text text-anchor="middle" x="183.5" y="-494.8" font-family="Helvetica,sans-Serif" font-size="9.00">repo paths</text>
<text text-anchor="middle" x="183.5" y="-484.8" font-family="Helvetica,sans-Serif" font-size="9.00">or workspace</text>
</g>
<!-- amplifier_session -->
<g id="node2" class="node">
<title>amplifier_session</title>
<path fill="#d4e6f1" stroke="black" d="M309.5,-560C309.5,-560 220.5,-560 220.5,-560 214.5,-560 208.5,-554 208.5,-548 208.5,-548 208.5,-536 208.5,-536 208.5,-530 214.5,-524 220.5,-524 220.5,-524 309.5,-524 309.5,-524 315.5,-524 321.5,-530 321.5,-536 321.5,-536 321.5,-548 321.5,-548 321.5,-554 315.5,-560 309.5,-560"/>
<text text-anchor="middle" x="265" y="-545.2" font-family="Helvetica,sans-Serif" font-size="11.00">Amplifier Session</text>
<text text-anchor="middle" x="265" y="-533.2" font-family="Helvetica,sans-Serif" font-size="11.00">+ amplifier&#45;tester</text>
</g>
<!-- amplifier_session&#45;&gt;setup_digital_twin -->
<g id="edge1" class="edge">
<title>amplifier_session&#45;&gt;setup_digital_twin</title>
<path fill="none" stroke="black" d="M240.52,-523.7C233.91,-517.66 227.6,-510.29 224,-502 217.5,-487.05 215.44,-469.73 215.51,-453.54"/>
<polygon fill="black" stroke="black" points="219.02,-453.2 215.83,-443.1 212.02,-452.99 219.02,-453.2"/>
<text text-anchor="middle" x="249.5" y="-494.8" font-family="Helvetica,sans-Serif" font-size="9.00">1. set up a</text>
<text text-anchor="middle" x="249.5" y="-484.8" font-family="Helvetica,sans-Serif" font-size="9.00">digital twin</text>
</g>
<!-- setup_digital_twin&#45;&gt;amplifier_session -->
<g id="edge8" class="edge">
<title>setup_digital_twin&#45;&gt;amplifier_session</title>
<path fill="none" stroke="black" d="M257.35,-443.15C264.6,-455.19 271.2,-468.57 275,-482 277.9,-492.24 276.88,-503.73 274.61,-513.83"/>
<polygon fill="black" stroke="black" points="271.16,-513.17 271.9,-523.74 277.91,-515.02 271.16,-513.17"/>
<text text-anchor="middle" x="296" y="-494.8" font-family="Helvetica,sans-Serif" font-size="9.00">6. report</text>
<text text-anchor="middle" x="296" y="-484.8" font-family="Helvetica,sans-Serif" font-size="9.00">results</text>
</g>
<!-- gitea_repos -->
<g id="node5" class="node">
<title>gitea_repos</title>
<path fill="#d5f5e3" stroke="black" d="M120,-269C120,-271.21 96.69,-273 68,-273 39.31,-273 16,-271.21 16,-269 16,-269 16,-233 16,-233 16,-230.79 39.31,-229 68,-229 96.69,-229 120,-230.79 120,-233 120,-233 120,-269 120,-269"/>
<path fill="none" stroke="black" d="M120,-269C120,-266.79 96.69,-265 68,-265 39.31,-265 16,-266.79 16,-269"/>
<text text-anchor="middle" x="68" y="-254.2" font-family="Helvetica,sans-Serif" font-size="11.00">Mirrored Repos</text>
<text text-anchor="middle" x="68" y="-242.2" font-family="Helvetica,sans-Serif" font-size="11.00">+ local changes</text>
</g>
<!-- setup_digital_twin&#45;&gt;gitea_repos -->
<g id="edge3" class="edge">
<title>setup_digital_twin&#45;&gt;gitea_repos</title>
<path fill="none" stroke="black" d="M167.26,-349.98C160.35,-344.03 153.45,-337.94 147,-332 129.1,-315.53 109.91,-296.14 94.92,-280.57"/>
<polygon fill="black" stroke="black" points="97.37,-278.07 87.93,-273.27 92.32,-282.91 97.37,-278.07"/>
<text text-anchor="middle" x="179" y="-324.8" font-family="Helvetica,sans-Serif" font-size="9.00">2. mirror +</text>
<text text-anchor="middle" x="179" y="-314.8" font-family="Helvetica,sans-Serif" font-size="9.00">push changes</text>
</g>
<!-- smoke_test -->
<g id="node7" class="node">
<title>smoke_test</title>
<path fill="#fdebd0" stroke="black" d="M386.5,-142C386.5,-142 301.5,-142 301.5,-142 295.5,-142 289.5,-136 289.5,-130 289.5,-130 289.5,-110 289.5,-110 289.5,-104 295.5,-98 301.5,-98 301.5,-98 386.5,-98 386.5,-98 392.5,-98 398.5,-104 398.5,-110 398.5,-110 398.5,-130 398.5,-130 398.5,-136 392.5,-142 386.5,-142"/>
<text text-anchor="middle" x="344" y="-129.2" font-family="Helvetica,sans-Serif" font-size="11.00">Smoke Tests</text>
<text text-anchor="middle" x="344" y="-117.2" font-family="Helvetica,sans-Serif" font-size="11.00">(version, import,</text>
<text text-anchor="middle" x="344" y="-105.2" font-family="Helvetica,sans-Serif" font-size="11.00">run, bundle list)</text>
</g>
<!-- setup_digital_twin&#45;&gt;smoke_test -->
<g id="edge7" class="edge">
<title>setup_digital_twin&#45;&gt;smoke_test</title>
<path fill="none" stroke="black" d="M262.35,-349.75C266.29,-343.99 269.95,-338.01 273,-332 296.18,-286.33 287.58,-269.52 304,-221 312,-197.36 322.53,-171.2 330.78,-151.56"/>
<polygon fill="black" stroke="black" points="334.06,-152.78 334.74,-142.21 327.62,-150.05 334.06,-152.78"/>
<text text-anchor="middle" x="322.5" y="-248.8" font-family="Helvetica,sans-Serif" font-size="9.00">5. verify</text>
</g>
<!-- dtu_profile -->
<g id="node8" class="node">
<title>dtu_profile</title>
<polygon fill="#fad7a0" stroke="black" points="246,-269 168,-269 168,-233 252,-233 252,-263 246,-269"/>
<polyline fill="none" stroke="black" points="246,-269 246,-263 "/>
<polyline fill="none" stroke="black" points="252,-263 246,-263 "/>
<text text-anchor="middle" x="210" y="-254.2" font-family="Helvetica,sans-Serif" font-size="11.00">Generated</text>
<text text-anchor="middle" x="210" y="-242.2" font-family="Helvetica,sans-Serif" font-size="11.00">Profile YAML</text>
</g>
<!-- setup_digital_twin&#45;&gt;dtu_profile -->
<g id="edge4" class="edge">
<title>setup_digital_twin&#45;&gt;dtu_profile</title>
<path fill="none" stroke="black" d="M218.85,-349.7C216.76,-326.59 214.29,-299.32 212.49,-279.47"/>
<polygon fill="black" stroke="black" points="215.95,-278.92 211.57,-269.28 208.98,-279.56 215.95,-278.92"/>
<text text-anchor="middle" x="242.5" y="-324.8" font-family="Helvetica,sans-Serif" font-size="9.00">3. generate</text>
<text text-anchor="middle" x="242.5" y="-314.8" font-family="Helvetica,sans-Serif" font-size="9.00">profile</text>
</g>
<!-- ecosystem_validator -->
<g id="node4" class="node">
<title>ecosystem_validator</title>
<path fill="#aed6f1" stroke="black" d="M388.5,-425C388.5,-425 309.5,-425 309.5,-425 303.5,-425 297.5,-419 297.5,-413 297.5,-413 297.5,-380 297.5,-380 297.5,-374 303.5,-368 309.5,-368 309.5,-368 388.5,-368 388.5,-368 394.5,-368 400.5,-374 400.5,-380 400.5,-380 400.5,-413 400.5,-413 400.5,-419 394.5,-425 388.5,-425"/>
<text text-anchor="middle" x="349" y="-412.2" font-family="Helvetica,sans-Serif" font-size="11.00">validator</text>
<text text-anchor="middle" x="349" y="-387.2" font-family="Helvetica,sans-Serif" font-size="11.00">Run checks</text>
<text text-anchor="middle" x="349" y="-375.2" font-family="Helvetica,sans-Serif" font-size="11.00">Report pass/fail</text>
</g>
<!-- ecosystem_validator&#45;&gt;smoke_test -->
<g id="edge9" class="edge">
<title>ecosystem_validator&#45;&gt;smoke_test</title>
<path fill="none" stroke="black" stroke-dasharray="5,2" d="M348.5,-367.92C347.56,-316.56 345.56,-206.54 344.57,-152.41"/>
<polygon fill="black" stroke="black" points="348.07,-152.29 344.39,-142.36 341.07,-152.42 348.07,-152.29"/>
<text text-anchor="middle" x="367" y="-253.8" font-family="Helvetica,sans-Serif" font-size="9.00">targeted</text>
<text text-anchor="middle" x="367" y="-243.8" font-family="Helvetica,sans-Serif" font-size="9.00">checks</text>
</g>
<!-- amplifier_install -->
<g id="node6" class="node">
<title>amplifier_install</title>
<path fill="#fdebd0" stroke="black" d="M259.5,-142C259.5,-142 164.5,-142 164.5,-142 158.5,-142 152.5,-136 152.5,-130 152.5,-130 152.5,-110 152.5,-110 152.5,-104 158.5,-98 164.5,-98 164.5,-98 259.5,-98 259.5,-98 265.5,-98 271.5,-104 271.5,-110 271.5,-110 271.5,-130 271.5,-130 271.5,-136 265.5,-142 259.5,-142"/>
<text text-anchor="middle" x="212" y="-129.2" font-family="Helvetica,sans-Serif" font-size="11.00">Amplifier CLI</text>
<text text-anchor="middle" x="212" y="-117.2" font-family="Helvetica,sans-Serif" font-size="11.00">(installed from</text>
<text text-anchor="middle" x="212" y="-105.2" font-family="Helvetica,sans-Serif" font-size="11.00">Gitea via rewrites)</text>
</g>
<!-- gitea_repos&#45;&gt;amplifier_install -->
<g id="edge6" class="edge">
<title>gitea_repos&#45;&gt;amplifier_install</title>
<path fill="none" stroke="black" stroke-dasharray="5,2" d="M47.6,-228.93C36.3,-214.65 26.47,-195.75 37,-181 60.91,-147.53 104.68,-132.53 142.47,-125.9"/>
<polygon fill="black" stroke="black" points="143.11,-129.34 152.44,-124.32 142.01,-122.43 143.11,-129.34"/>
<text text-anchor="middle" x="84.5" y="-198.8" font-family="Helvetica,sans-Serif" font-size="9.00">serves code</text>
<text text-anchor="middle" x="84.5" y="-188.8" font-family="Helvetica,sans-Serif" font-size="9.00">(looks like upstream)</text>
</g>
<!-- pypi -->
<g id="node9" class="node">
<title>pypi</title>
<polygon fill="#f5f5f5" stroke="black" points="192,-36 142,-36 138,-32 138,0 188,0 192,-4 192,-36"/>
<polyline fill="none" stroke="black" points="188,-32 138,-32 "/>
<polyline fill="none" stroke="black" points="188,-32 188,0 "/>
<polyline fill="none" stroke="black" points="188,-32 192,-36 "/>
<text text-anchor="middle" x="165" y="-15.2" font-family="Helvetica,sans-Serif" font-size="11.00">PyPI</text>
</g>
<!-- amplifier_install&#45;&gt;pypi -->
<g id="edge10" class="edge">
<title>amplifier_install&#45;&gt;pypi</title>
<path fill="none" stroke="black" stroke-dasharray="1,5" d="M180.54,-97.96C173.07,-91.26 166.09,-83.17 162,-74 158.16,-65.37 157.73,-55.21 158.65,-45.98"/>
<polygon fill="black" stroke="black" points="162.11,-46.51 160.15,-36.09 155.19,-45.45 162.11,-46.51"/>
<text text-anchor="middle" x="197" y="-66.8" font-family="Helvetica,sans-Serif" font-size="9.00">non&#45;overridden</text>
<text text-anchor="middle" x="197" y="-56.8" font-family="Helvetica,sans-Serif" font-size="9.00">packages</text>
</g>
<!-- anthropic -->
<g id="node10" class="node">
<title>anthropic</title>
<polygon fill="#f5f5f5" stroke="black" points="303,-36 217,-36 213,-32 213,0 299,0 303,-4 303,-36"/>
<polyline fill="none" stroke="black" points="299,-32 213,-32 "/>
<polyline fill="none" stroke="black" points="299,-32 299,0 "/>
<polyline fill="none" stroke="black" points="299,-32 303,-36 "/>
<text text-anchor="middle" x="258" y="-15.2" font-family="Helvetica,sans-Serif" font-size="11.00">Anthropic API</text>
</g>
<!-- amplifier_install&#45;&gt;anthropic -->
<g id="edge11" class="edge">
<title>amplifier_install&#45;&gt;anthropic</title>
<path fill="none" stroke="black" stroke-dasharray="1,5" d="M223.96,-97.73C227.97,-90.31 232.34,-81.87 236,-74 240.27,-64.82 244.5,-54.57 248.1,-45.43"/>
<polygon fill="black" stroke="black" points="251.39,-46.64 251.73,-36.05 244.86,-44.12 251.39,-46.64"/>
<text text-anchor="middle" x="273" y="-66.8" font-family="Helvetica,sans-Serif" font-size="9.00">passthrough</text>
<text text-anchor="middle" x="273" y="-56.8" font-family="Helvetica,sans-Serif" font-size="9.00">(smoke test)</text>
</g>
<!-- dtu_profile&#45;&gt;amplifier_install -->
<g id="edge5" class="edge">
<title>dtu_profile&#45;&gt;amplifier_install</title>
<path fill="none" stroke="black" d="M206.8,-232.98C205.68,-226.17 204.55,-218.24 204,-211 202.5,-191.44 204.38,-169.52 206.69,-152.2"/>
<polygon fill="black" stroke="black" points="210.18,-152.48 208.15,-142.08 203.26,-151.48 210.18,-152.48"/>
<text text-anchor="middle" x="244" y="-203.8" font-family="Helvetica,sans-Serif" font-size="9.00">4. launch DTU</text>
<text text-anchor="middle" x="244" y="-193.8" font-family="Helvetica,sans-Serif" font-size="9.00">(url_rewrites</text>
<text text-anchor="middle" x="244" y="-183.8" font-family="Helvetica,sans-Serif" font-size="9.00">+ pypi_overrides)</text>
</g>
</g>
</svg>
